<?xml version="1.0" encoding="UTF-8"?><svg id="Layer_2" xmlns="http://www.w3.org/2000/svg" viewBox="0 0 351.82 99.48"><defs><style>.cls-1{opacity:.5;}.cls-2{fill:#fff;stroke-width:0px;}</style></defs><g id="OBJECTS"><g class="cls-1"><path class="cls-2" d="m132.62,44.29c0,.45-.46.99-1.38,1.64-.92.65-2.01,1.28-3.27,1.9-1.27.62-2.47,1.17-3.61,1.64-1.14.47-1.93.81-2.38,1-3.13,1.29-6.28,2.54-9.45,3.76-3.18,1.22-6.43,2.2-9.75,2.94l-3.2-7.74c1.88-.25,3.8-.5,5.73-.74,1.94-.25,3.85-.5,5.73-.74v-18.01h-8.78v-3.2h8.78v-14.22h-9.6v-3.27h21.44c.15-1.04.58-1.94,1.3-2.68.72-.74,1.62-1.12,2.72-1.12s1.95.36,2.72,1.08c.77.72,1.15,1.6,1.15,2.64,0,1.14-.45,1.99-1.34,2.53-.89.55-1.84.82-2.83.82h-7v14.22h.67c.1-.84.47-1.56,1.12-2.16.64-.6,1.36-.89,2.16-.89.84,0,1.59.32,2.23.97.64.65.97,1.39.97,2.23,0,.89-.36,1.63-1.08,2.2-.72.57-1.5.86-2.34.86h-3.72v16.6c2.03-.45,4.08-.87,6.14-1.27,2.06-.4,4.11-.82,6.14-1.27h.22c.1,0,.21.03.33.08.12.05.19.12.19.22Zm40.86-12.13c0,.94-.37,1.8-1.12,2.57-.74.77-1.59,1.15-2.53,1.15-1.99,0-3.97-.55-5.95-1.64-1.99-1.09-3.88-2.53-5.69-4.32-1.81-1.79-3.49-3.72-5.02-5.81s-2.92-4.17-4.13-6.25-2.2-3.95-2.94-5.58c-.5.35-.93.71-1.3,1.08s-.83.98-1.38,1.82c-.5.84-1.07,1.81-1.71,2.9-.65,1.09-1.19,1.98-1.64,2.68-2.98,4.62-6.65,8.66-11.02,12.13-.4.3-1.04.73-1.94,1.3-.89.57-1.81,1.08-2.75,1.53-.94.45-1.66.67-2.16.67-.1,0-.27-.02-.52-.07-.25-.05-.37-.17-.37-.37s.07-.4.22-.6c.15-.2.27-.35.37-.45.84-.84,1.64-1.69,2.38-2.53.74-.84,1.44-1.74,2.08-2.68,2.78-4.12,5.21-8.68,7.29-13.7,2.08-5.01,3.72-9.92,4.91-14.74l9.83,2.75c-.3.84-.66,1.69-1.08,2.53s-.83,1.69-1.23,2.53c.4-.25,1.05-.56,1.97-.93.92-.37,1.85-.71,2.79-1,.94-.3,1.61-.45,2.01-.45.64,0,1.07.12,1.26.37.2.25.4.65.6,1.19.25.65.48,1.3.71,1.97s.46,1.35.71,2.05c.74,1.93,1.62,4.04,2.64,6.33,1.02,2.28,2.15,4.49,3.39,6.62,1.24,2.13,2.53,3.97,3.87,5.51.5-.55,1.07-1.03,1.71-1.45.64-.42,1.34-.63,2.08-.63.89,0,1.72.36,2.49,1.08.77.72,1.15,1.53,1.15,2.42Zm-6.92,16.3c-5.06,4.42-10.22,8.14-15.48,11.17s-11.19,5.36-17.79,7c-1.64.4-3.31.78-5.02,1.15s-3.44.56-5.17.56c-.2,0-.4-.1-.59-.3s-.3-.4-.3-.6c0-.45.25-.77.74-.97.79-.35,1.61-.63,2.46-.86.84-.22,1.66-.48,2.46-.78,6.05-2.23,11.61-5.32,16.67-9.27,5.06-3.94,9.63-8.37,13.7-13.29l8.34,6.18Zm-7.15-10.42c-2.04,1.94-4.44,3.91-7.22,5.92-2.78,2.01-5.67,3.83-8.67,5.47-3,1.64-5.84,2.9-8.52,3.8-.59.2-1.38.41-2.34.63-.97.22-1.93.42-2.9.6-.97.17-1.77.26-2.42.26-.2,0-.48-.04-.86-.11-.37-.07-.56-.28-.56-.63,0-.25.15-.47.45-.67.79-.45,1.58-.86,2.34-1.23.77-.37,1.55-.78,2.34-1.23,3.82-2.18,7.59-4.86,11.31-8.04,3.72-3.17,6.95-6.5,9.68-9.97l7.37,5.21Zm-6.62-9.9c-1.84,2.04-3.87,3.86-6.1,5.47-2.23,1.61-4.54,3.09-6.92,4.43-.55.3-1.35.68-2.42,1.15-1.07.47-2.21.96-3.42,1.45s-2.36.91-3.42,1.23c-1.07.32-1.87.48-2.42.48-.2,0-.4-.08-.6-.22s-.3-.32-.3-.52c0-.4.11-.66.33-.78.22-.12.46-.26.71-.41,3.37-2.23,6.57-4.86,9.6-7.89,3.03-3.03,5.61-6.25,7.74-9.68,1.29.79,2.53,1.64,3.72,2.53,1.19.89,2.36,1.81,3.5,2.75Z"/><path class="cls-2" d="m260.87,29.1c0,1.39-.43,2.41-1.3,3.05-.87.65-1.87.97-3.01.97h-10.64v23.74c0,2.28-.25,4.38-.75,6.29-.5,1.91-1.44,3.43-2.83,4.58-1.39,1.14-3.45,1.71-6.18,1.71-1.19,0-2.62-.41-4.28-1.23-1.66-.82-3.26-1.8-4.8-2.94-1.54-1.14-2.73-2.13-3.57-2.98-.05-.1-.14-.21-.26-.33-.12-.12-.19-.26-.19-.41,0-.2.17-.3.52-.3.15,0,.37.05.67.15,1.34.45,2.74.81,4.21,1.08,1.46.27,2.89.41,4.28.41s2.39-.38,3.01-1.15c.62-.77,1.02-1.71,1.19-2.83s.26-2.2.26-3.24v-22.55h-44.06v-3.42h58.58c.05-1.34.53-2.46,1.45-3.35.92-.89,1.95-1.34,3.09-1.34,1.34,0,2.44.4,3.31,1.19.87.79,1.3,1.76,1.3,2.9Zm-10.42-20.62c0,1.44-.46,2.48-1.38,3.13-.92.65-2.05.97-3.39.97h-17.42c-.79,1.54-1.55,2.77-2.27,3.68-.72.92-1.55,1.8-2.49,2.64-3.18,2.88-6.65,4.85-10.42,5.92-3.77,1.07-7.74,1.9-11.91,2.49-.35.05-.73.09-1.15.11-.42.03-.83.04-1.23.04-.15,0-.32-.09-.52-.26-.2-.17-.3-.36-.3-.56,0-.4.3-.69.89-.89.6-.15,1.25-.33,1.97-.56.72-.22,1.18-.36,1.38-.41,1.69-.69,3.37-1.49,5.06-2.38,1.69-.89,3.28-1.91,4.76-3.05,2.58-1.88,4.66-4.14,6.25-6.77h-18.38v-3.42h19.28c.35-1.14.64-2.54.89-4.21.25-1.66.45-3.21.6-4.65l10.87.97c-.15,1.34-.42,2.78-.82,4.32-.4,1.54-.77,2.73-1.12,3.57h11.16c.05-1.29.48-2.48,1.3-3.57.82-1.09,1.92-1.64,3.31-1.64,1.19,0,2.33.44,3.42,1.3,1.09.87,1.64,1.95,1.64,3.24Zm-20.02,38.78c0,2.78-.36,4.94-1.08,6.48-.72,1.54-1.9,2.62-3.54,3.24-1.64.62-3.82.93-6.55.93-2.58,0-5.16.01-7.74.04-2.58.03-5.16.04-7.74.04v-20.1h26.65v9.38Zm-8.71-6.1h-9.23v13.55h4.91c1.59,0,2.7-.51,3.35-1.53.64-1.02.97-2.22.97-3.61v-8.41Zm26.79-15.04c0,.55-.29.87-.86.97-.57.1-1.06.15-1.45.15-2.04,0-4.25-.28-6.66-.86-2.41-.57-4.75-1.39-7.03-2.46-2.28-1.07-4.29-2.34-6.03-3.83l6.85-5.73c1.79,1.79,3.44,3.3,4.95,4.54,1.51,1.24,3.26,2.51,5.25,3.8,1.04.65,2.08,1.24,3.13,1.79.25.1.48.21.71.33.22.12.43.26.63.41.35.25.52.55.52.89Z"/><path class="cls-2" d="m309.25,18.01c0,1.04-.32,1.81-.97,2.31-.65.5-1.46.74-2.46.74h-5.51v6.4c.55-.3,1.1-.61,1.67-.93.57-.32,1.1-.66,1.6-1,.64,2.18,1.39,4.34,2.23,6.48.84,2.13,1.66,4.27,2.46,6.4.05.1.07.22.07.37,0,.25-.1.5-.3.74-.2.25-.45.37-.74.37-.35,0-.84-.25-1.49-.74-.64-.5-1.34-1.09-2.08-1.79-.74-.69-1.43-1.36-2.05-2.01-.62-.64-1.08-1.12-1.38-1.41v32.82h-8.41v-32.53c-.65,1.64-1.46,3.26-2.46,4.88-.99,1.61-2.06,3.09-3.2,4.43-.45.55-1.1,1.25-1.97,2.12-.87.87-1.76,1.67-2.68,2.42-.92.75-1.73,1.24-2.42,1.49-.1.05-.27.07-.52.07s-.37-.12-.37-.37c0-.15.14-.52.41-1.12.27-.6.58-1.23.93-1.9.35-.67.57-1.13.67-1.38,1.44-3.28,2.64-6.64,3.61-10.08s1.65-6.96,2.05-10.53c.99.35,1.98.7,2.98,1.04.99.35,1.98.72,2.98,1.12v-5.36h-10.5v-3.2h10.5V2.16h8.41v15.71h2.08c.1-.94.45-1.74,1.04-2.38.6-.64,1.39-.97,2.38-.97.89,0,1.69.37,2.38,1.12.69.75,1.04,1.54,1.04,2.38Zm34.98-9.01c0,1.24-.41,2.17-1.23,2.79-.82.62-1.8.93-2.94.93h-12.21c-1.14,2.73-2.59,5.02-4.35,6.88-1.76,1.86-3.93,3.49-6.51,4.88-2.68,1.44-5.51,2.46-8.49,3.05-.2.05-.47.11-.82.19-.35.07-.65.11-.89.11-.59,0-.89-.22-.89-.67,0-.2.12-.35.37-.45,2.93-1.59,5.56-3.5,7.89-5.73,2.33-2.23,3.99-4.99,4.99-8.26h-11.83v-3.42h12.8c.4-1.49.66-3.03.78-4.62.12-1.59.21-3.15.26-4.69l9.45,1.19c-.2,1.39-.43,2.75-.71,4.09-.27,1.34-.56,2.68-.86,4.02h6.77c0-1.19.38-2.2,1.15-3.01.77-.82,1.77-1.23,3.01-1.23,1.14,0,2.13.36,2.98,1.08.84.72,1.27,1.67,1.27,2.87Zm7.59,20.17c0,1.19-.4,2.1-1.19,2.72-.79.62-1.76.93-2.9.93h-6.4v23c0,2.28-.19,4.42-.56,6.4-.37,1.98-1.2,3.57-2.49,4.76-1.29,1.19-3.35,1.79-6.18,1.79-1.49,0-3-.32-4.54-.97-1.54-.65-2.98-1.48-4.32-2.49-1.34-1.02-2.51-2.07-3.5-3.16-.15-.15-.22-.27-.22-.37,0-.2.15-.3.45-.3.1,0,.17.01.22.04.05.03.1.04.15.04,1.29.3,2.59.55,3.91.74,1.31.2,2.64.3,3.98.3,1.69,0,2.82-.55,3.39-1.64.57-1.09.86-2.36.86-3.8,0-4.02.01-8.08.04-12.17.02-4.09.04-8.15.04-12.17h-24.56v-3.13h35.58c0-1.19.36-2.25,1.08-3.16.72-.92,1.7-1.38,2.94-1.38s2.26.35,3.05,1.04c.79.7,1.19,1.69,1.19,2.98Zm-21.81,18.53c0,2.18-.43,3.86-1.3,5.02-.87,1.17-2.06,1.97-3.57,2.42-1.51.45-3.24.67-5.17.67h-10.2v-18.91h20.25v10.79Zm-7.52-7.96h-5.28v13.17h2.01c1.29,0,2.16-.41,2.6-1.23.45-.82.67-1.8.67-2.94v-9.01Zm19.5-13.25c0,.25-.1.46-.3.63-.2.17-.42.26-.67.26-1.79,0-3.67-.4-5.66-1.19-1.99-.79-3.9-1.79-5.73-2.98-1.84-1.19-3.42-2.36-4.76-3.5l6.25-5.43c1.39,2.23,2.96,4.24,4.73,6.03,1.76,1.79,3.63,3.55,5.62,5.29.1.1.21.24.33.41.12.17.19.33.19.48Z"/><path class="cls-2" d="m123.91,84.85c0,1.14-.2,2.07-.59,2.78-.4.72-.94,1.27-1.62,1.67-.68.4-1.46.67-2.33.82-.87.15-1.79.22-2.76.22-.31,0-.62-.02-.93-.05-.31-.04-.62-.07-.93-.1v7.53c0,.14.03.28.09.44.06.16.18.23.35.23.22,0,.44,0,.66-.03.21-.02.44-.03.66-.03.12,0,.22.07.3.21.08.14.12.25.12.34,0,.12-.04.22-.13.29-.09.07-.18.1-.28.1-.22,0-.45,0-.67-.03-.22-.02-.46-.04-.7-.05-.35-.04-.7-.05-1.06-.05h-1.06c-.83,0-1.65.03-2.46.08-.19.02-.38.03-.56.04-.18,0-.37.01-.56.01-.17,0-.29-.06-.34-.17s-.08-.23-.08-.35c0-.14.05-.24.16-.3.1-.06.21-.09.34-.09.16,0,.31,0,.47.03.16.02.32.03.49.03h.26c.24-.02.38-.16.43-.42.04-.26.06-.47.06-.65v-15.25c0-.14-.02-.34-.05-.61-.04-.27-.16-.41-.36-.43h-.26c-.17,0-.35,0-.52.03-.17.02-.34.03-.52.03-.12,0-.24-.05-.35-.16s-.17-.22-.17-.34.06-.23.17-.34c.11-.1.23-.16.35-.16.19,0,.38,0,.58.03.2.02.39.04.58.05.4.02.79.03,1.18.04.39,0,.77.01,1.15.01.79,0,1.58-.02,2.37-.06s1.58-.07,2.37-.07,1.51.08,2.24.25c.73.17,1.39.43,1.98.79s1.06.85,1.41,1.45c.35.6.53,1.35.53,2.23Zm-3.73.08c0-.72-.12-1.39-.36-1.99-.24-.6-.62-1.08-1.13-1.44-.51-.35-1.15-.53-1.93-.53-.17,0-.35,0-.52-.01-.17,0-.35-.01-.52-.01-.43,0-.71.04-.83.12-.12.08-.18.36-.18.84v3.55c0,1.19,0,2.37.03,3.55.26.22.56.37.91.43.34.06.68.09,1.01.09.9,0,1.6-.22,2.11-.66.51-.44.87-1.01,1.09-1.72s.32-1.44.32-2.2Z"/><path class="cls-2" d="m140.95,88.29c0,.17-.05.33-.14.48s-.24.22-.43.22c-.29,0-.49-.12-.6-.36-.1-.22-.21-.49-.32-.79-.11-.3-.26-.57-.44-.79-.18-.22-.44-.34-.76-.34-.17,0-.34.03-.49.1s-.3.16-.44.26c-.55.38-1,.92-1.33,1.62s-.56,1.38-.66,2.06v-.03,7.02c0,.29.08.48.25.57.16.09.36.12.6.09.23-.03.44-.04.63-.04.24,0,.36.13.36.39,0,.28-.14.42-.41.42-.52,0-1.04,0-1.55-.03-.52-.02-1.04-.03-1.55-.03s-1.07.01-1.61.04c-.54.03-1.08.04-1.63.04-.12,0-.21-.05-.26-.14s-.08-.19-.08-.27c0-.26.14-.39.41-.39.17,0,.34,0,.5.01.16,0,.33.01.5.01.21,0,.34-.07.41-.21.07-.14.1-.29.1-.47v-9.37c0-.19-.02-.42-.05-.67s-.11-.49-.22-.7c-.11-.21-.3-.31-.56-.31-.17,0-.34.02-.5.07s-.34.06-.53.06c-.26,0-.39-.13-.39-.39,0-.19.09-.32.28-.39.24-.09.49-.14.75-.17.26-.03.51-.06.75-.12.22-.05.52-.12.88-.22.36-.09.72-.18,1.08-.26.35-.08.62-.12.82-.12.26,0,.45.09.57.29.05.09.1.29.16.61s.09.64.13.97c.03.33.05.56.05.7.54-.67,1.13-1.29,1.79-1.84.66-.55,1.45-.83,2.38-.83.24,0,.5.05.76.14.27.09.44.28.5.56.09.33.16.75.21,1.26s.08.94.08,1.28Z"/><path class="cls-2" d="m159.67,95.77c0,.05-.01.13-.04.22-.03.09-.06.17-.09.22-.12.28-.35.59-.67.95-.33.35-.62.63-.88.82-1.16.88-2.49,1.32-4.01,1.32-1.36,0-2.55-.29-3.55-.87-1-.58-1.77-1.39-2.3-2.42-.54-1.04-.8-2.23-.8-3.57s.26-2.57.79-3.66c.53-1.1,1.29-1.97,2.28-2.62.99-.65,2.19-.97,3.59-.97,1.61,0,2.89.44,3.86,1.32.97.88,1.45,2.14,1.45,3.78,0,.45-.21.67-.62.67-.76,0-1.52,0-2.28-.03-.76-.02-1.52-.03-2.28-.03h-1.66c-.55,0-1.11,0-1.66.03-.05.52-.08,1.04-.08,1.58,0,.48.07,1.05.19,1.71.13.66.33,1.29.6,1.92.27.62.62,1.14,1.05,1.54.43.41.96.61,1.58.61.78,0,1.43-.11,1.96-.34.53-.22,1-.54,1.41-.96s.84-.91,1.27-1.48c.05-.07.11-.12.17-.17s.13-.06.22-.06c.12,0,.24.05.35.14.11.1.17.21.17.35Zm-3.73-5.72c0-.34-.02-.76-.05-1.24-.04-.48-.12-.95-.25-1.41-.13-.46-.33-.84-.61-1.15-.28-.31-.66-.47-1.14-.47s-.88.15-1.23.45c-.35.3-.65.68-.89,1.14-.24.46-.43.93-.57,1.42-.14.49-.24.93-.31,1.31.29,0,.58,0,.87.01.29,0,.57.01.84.01,1.12,0,2.24-.03,3.34-.08Z"/><path class="cls-2" d="m179.14,95.7c0,.07-.02.14-.05.22-.03.08-.07.15-.1.22-.36.67-.85,1.24-1.46,1.7-.61.46-1.29.81-2.03,1.05-.74.24-1.48.36-2.23.36-.64,0-1.34-.1-2.1-.31s-1.42-.5-1.97-.88c-.9-.66-1.56-1.47-1.98-2.43-.42-.97-.63-1.99-.63-3.08,0-1.35.26-2.58.78-3.69s1.27-2.01,2.27-2.68c.99-.67,2.2-1.01,3.61-1.01.52,0,1.01.08,1.48.23.14.03.36.12.66.27.3.15.6.28.89.4.29.12.47.18.54.18.19,0,.38-.07.56-.22.18-.15.32-.22.43-.22s.16.07.16.21c.03.17.05.36.05.56s0,.39.03.58c.02.42.05.83.09,1.24s.06.83.06,1.24c0,.22-.03.42-.1.6-.07.17-.23.26-.49.26-.17,0-.3-.04-.39-.13-.09-.09-.15-.2-.18-.34-.21-.62-.42-1.23-.63-1.83s-.57-1.12-1.08-1.57c-.19-.19-.46-.37-.82-.53s-.67-.25-.94-.25c-.73,0-1.32.23-1.79.7-.47.47-.84,1.04-1.11,1.73s-.47,1.4-.58,2.14c-.11.73-.17,1.38-.17,1.93,0,.52.06,1.12.18,1.8.12.68.32,1.34.6,1.97.28.63.64,1.16,1.09,1.58s1.01.63,1.68.63c.64,0,1.29-.14,1.94-.41s1.21-.64,1.66-1.09c.14-.14.28-.28.43-.44s.28-.32.4-.49c.05-.09.1-.17.16-.25s.11-.15.18-.22c.14-.14.28-.21.41-.21s.26.04.36.13c.1.09.16.2.16.34Z"/><path class="cls-2" d="m192.73,98.83c0,.28-.14.41-.41.41-.5,0-1.01-.02-1.53-.06-.52-.04-1.04-.07-1.55-.07s-1.04.02-1.57.07c-.53.04-1.05.06-1.57.06-.12,0-.21-.05-.26-.14s-.08-.19-.08-.27c0-.28.13-.41.39-.41.17,0,.34,0,.49.03.16.02.31.03.47.03.21,0,.34-.07.4-.21.06-.14.09-.29.09-.47v-10.28c0-.17-.02-.37-.05-.58-.03-.22-.17-.32-.41-.32-.22,0-.46.02-.7.05-.24.03-.48.05-.72.05-.1,0-.2-.03-.3-.08s-.14-.14-.14-.26c0-.22.11-.37.34-.44.19-.03.39-.06.61-.09.22-.03.42-.05.61-.07.6-.09,1.2-.19,1.77-.32.58-.13,1.16-.26,1.75-.4.05,0,.1,0,.16-.01s.09-.01.13-.01c.26,0,.39.1.39.31,0,2.07,0,4.15-.03,6.23-.02,2.08-.03,4.16-.03,6.23,0,.31.07.5.21.58.14.08.32.11.53.09.22-.02.44-.03.66-.03.24,0,.36.13.36.39Zm-1.63-17.79c0,.54-.19,1-.58,1.4-.39.4-.86.6-1.41.6s-1-.2-1.4-.6c-.4-.4-.6-.86-.6-1.4s.2-1.02.6-1.41c.4-.39.86-.58,1.4-.58s1.02.19,1.41.58.58.86.58,1.41Z"/><path class="cls-2" d="m213.58,92.46c0,1.33-.3,2.51-.91,3.53-.6,1.03-1.43,1.83-2.47,2.42-1.04.59-2.23.88-3.56.88s-2.5-.31-3.52-.93c-1.02-.62-1.82-1.46-2.4-2.51s-.87-2.24-.87-3.55.29-2.58.85-3.66c.57-1.08,1.37-1.93,2.41-2.56,1.04-.63,2.24-.95,3.62-.95,1.52,0,2.78.31,3.79.92,1.01.61,1.77,1.47,2.28,2.56.51,1.1.76,2.38.76,3.85Zm-3.52-.13c0-.57-.04-1.22-.12-1.96-.08-.73-.24-1.45-.48-2.14-.24-.69-.59-1.26-1.05-1.72-.46-.46-1.08-.69-1.85-.69-.71,0-1.28.22-1.71.67-.43.45-.76,1.01-1,1.68-.23.67-.39,1.37-.48,2.08-.09.72-.13,1.33-.13,1.85,0,.57.04,1.22.12,1.96.08.73.24,1.45.48,2.14.24.69.6,1.26,1.06,1.71s1.09.67,1.86.67c.72,0,1.31-.22,1.75-.66.44-.44.77-.99,1-1.66.22-.66.37-1.35.44-2.07.07-.72.1-1.34.1-1.88Z"/><path class="cls-2" d="m235.89,98.18c0,.14-.09.26-.26.36-.47.33-.9.53-1.29.6-.4.07-.87.1-1.42.1s-.99-.22-1.36-.67c-.37-.45-.6-.92-.69-1.4-.5.69-1.09,1.22-1.77,1.59-.68.37-1.45.56-2.32.56-1.66,0-2.83-.38-3.52-1.15-.69-.77-1.04-1.96-1.04-3.59v-1.74c0-.9,0-1.79.01-2.68,0-.89.01-1.78.01-2.68,0-.19-.03-.4-.08-.62s-.21-.34-.47-.34c-.1,0-.2,0-.3.03-.09.02-.19.03-.3.03-.12,0-.26-.02-.42-.05-.16-.03-.23-.13-.23-.28,0-.14.03-.23.09-.29.06-.05.14-.09.25-.1.19-.05.4-.09.62-.1.22-.02.43-.03.62-.05.95-.12,1.92-.3,2.93-.54.1-.03.2-.05.29-.05.24,0,.36.11.36.34,0,1.48-.02,2.97-.05,4.47-.04,1.49-.05,2.98-.05,4.47,0,.41.01.85.04,1.31.03.46.1.88.23,1.28.13.4.35.72.66.96.31.24.74.36,1.29.36.59,0,1.12-.23,1.61-.69.48-.46.84-.93,1.06-1.41.02-.04.05-.12.1-.25.05-.13.08-.2.08-.22,0-1.38,0-2.76-.01-4.13,0-1.37-.01-2.74-.01-4.1,0-.19-.03-.4-.08-.62s-.21-.34-.47-.34c-.1,0-.21,0-.31.03-.1.02-.22.03-.34.03s-.25-.02-.4-.05c-.15-.03-.22-.13-.22-.28,0-.14.03-.23.09-.29.06-.05.14-.09.25-.1.19-.05.4-.09.62-.1.22-.02.44-.03.65-.05.97-.14,1.92-.32,2.87-.54.05-.02.1-.03.14-.04.04,0,.09-.01.14-.01.26,0,.39.11.39.34,0,1.88,0,3.77-.03,5.66-.02,1.89-.03,3.78-.03,5.68,0,.17,0,.37.03.58.02.22.08.41.18.57s.28.25.52.25c.19,0,.38-.05.57-.14.19-.09.35-.14.49-.14.09,0,.15.03.19.09s.07.13.07.19Z"/><path class="cls-2" d="m252.28,95.33c0,.81-.17,1.47-.52,1.98s-.8.9-1.37,1.18c-.57.28-1.19.47-1.85.57-.66.1-1.32.16-1.98.16-.43,0-.85-.04-1.27-.13s-.83-.18-1.24-.29c-.17-.03-.35-.07-.54-.12-.19-.04-.38-.06-.57-.06-.07-.24-.17-.6-.3-1.08-.13-.47-.25-.94-.36-1.4s-.17-.78-.17-.97.06-.31.18-.36c.12-.05.25-.08.39-.08.21,0,.36.08.47.23.26.36.47.74.62,1.14.16.4.4.77.72,1.11.24.26.59.52,1.05.79.46.27.87.4,1.23.4.78,0,1.36-.18,1.75-.54s.58-.94.58-1.74c0-.53-.16-.98-.49-1.35-.33-.36-.75-.69-1.26-.98-.51-.29-1.05-.58-1.62-.87-.57-.29-1.11-.6-1.62-.95-.51-.34-.93-.76-1.26-1.25-.33-.49-.49-1.09-.49-1.8,0-.88.24-1.6.72-2.15.48-.55,1.1-.96,1.85-1.22s1.51-.39,2.27-.39c.34,0,.68.03,1.01.08s.66.15.98.29c.16.05.37.12.63.19.27.08.48.12.63.12.22,0,.44-.03.65-.08.04.48.09.97.17,1.45.08.48.12.97.14,1.45v.08c.02.17-.03.32-.14.43-.11.11-.25.17-.4.17-.17,0-.3-.03-.38-.1-.08-.07-.15-.17-.22-.31-.22-.5-.44-.98-.66-1.44-.22-.46-.5-.83-.85-1.13-.35-.29-.86-.44-1.51-.44-.69,0-1.2.27-1.53.8-.33.54-.49,1.11-.49,1.71,0,.48.18.9.54,1.24s.73.62,1.11.83c.47.24,1,.51,1.62.8.61.29,1.2.63,1.77,1.01s1.04.82,1.42,1.31.57,1.06.57,1.7Z"/><path class="cls-2" d="m284.29,94.38c0,1-.22,1.83-.67,2.5-.45.67-1.04,1.19-1.77,1.57-.73.38-1.53.65-2.4.8s-1.71.23-2.54.23c-.64,0-1.25-.09-1.84-.27-.59-.18-1.18-.38-1.79-.61-.29-.1-.58-.17-.87-.19-.29-.03-.58-.04-.89-.04-.05-.42-.1-.82-.16-1.23-.05-.41-.11-.82-.18-1.23-.04-.29-.08-.58-.13-.85s-.08-.55-.08-.83c0-.24.05-.44.14-.6s.27-.23.53-.23c.24,0,.43.05.56.14s.23.25.3.48c.12.31.22.63.3.96.08.33.18.66.3.98.29.81.77,1.46,1.44,1.94.66.48,1.45.73,2.34.73,1.21,0,2.14-.35,2.78-1.05s.97-1.64.97-2.83c0-.69-.15-1.26-.44-1.72s-.67-.85-1.14-1.18c-.47-.33-.97-.64-1.5-.93-.5-.28-1.01-.54-1.53-.78-.52-.24-1.03-.49-1.53-.75-.55-.29-1.09-.66-1.62-1.1s-.96-.95-1.29-1.53c-.34-.58-.5-1.2-.5-1.88,0-1.14.3-2.08.89-2.82.6-.74,1.36-1.29,2.3-1.66.94-.36,1.92-.54,2.94-.54.66,0,1.29.09,1.9.27.61.18,1.21.39,1.8.63.19.07.37.12.53.16s.34.05.53.05c.14,0,.27,0,.39-.01s.24-.02.36-.04c.05.55.11,1.1.18,1.66s.14,1.1.21,1.66c.02.09.03.18.04.27s.01.19.01.27c0,.24-.05.46-.16.66-.1.2-.3.3-.6.3-.22,0-.39-.05-.49-.16s-.2-.25-.29-.44c-.21-.53-.41-1.06-.6-1.58-.19-.52-.47-1-.83-1.45-.38-.48-.85-.84-1.42-1.07-.57-.23-1.16-.35-1.76-.35s-1.08.16-1.48.48c-.4.32-.69.73-.88,1.23-.19.5-.29,1.02-.29,1.55,0,.83.22,1.47.66,1.93.44.46.99.88,1.64,1.26.36.19.73.38,1.1.56s.74.36,1.1.53c.86.4,1.7.88,2.52,1.44.82.56,1.5,1.23,2.04,1.99.54.77.82,1.68.82,2.73Z"/><path class="cls-2" d="m303.81,95.77c0,.05-.01.13-.04.22-.03.09-.06.17-.09.22-.12.28-.35.59-.67.95-.33.35-.62.63-.88.82-1.16.88-2.49,1.32-4.01,1.32-1.36,0-2.55-.29-3.55-.87-1-.58-1.77-1.39-2.3-2.42-.54-1.04-.8-2.23-.8-3.57s.26-2.57.79-3.66c.53-1.1,1.29-1.97,2.28-2.62.99-.65,2.19-.97,3.59-.97,1.61,0,2.89.44,3.86,1.32.97.88,1.45,2.14,1.45,3.78,0,.45-.21.67-.62.67-.76,0-1.52,0-2.28-.03-.76-.02-1.52-.03-2.28-.03h-1.66c-.55,0-1.11,0-1.66.03-.05.52-.08,1.04-.08,1.58,0,.48.07,1.05.19,1.71.13.66.33,1.29.6,1.92.27.62.62,1.14,1.05,1.54.43.41.96.61,1.58.61.78,0,1.43-.11,1.96-.34.53-.22,1-.54,1.41-.96s.84-.91,1.27-1.48c.05-.07.11-.12.17-.17s.13-.06.22-.06c.12,0,.24.05.35.14.11.1.17.21.17.35Zm-3.73-5.72c0-.34-.02-.76-.05-1.24-.04-.48-.12-.95-.25-1.41-.13-.46-.33-.84-.61-1.15-.28-.31-.66-.47-1.14-.47s-.88.15-1.23.45c-.35.3-.65.68-.89,1.14-.24.46-.43.93-.57,1.42-.14.49-.24.93-.31,1.31.29,0,.58,0,.87.01.29,0,.57.01.84.01,1.12,0,2.24-.03,3.34-.08Z"/><path class="cls-2" d="m323.56,97.92c0,.07-.03.15-.09.23-.06.09-.12.16-.17.21-.54.62-1.23.93-2.07.93-.74,0-1.34-.16-1.79-.49-.45-.33-.79-.84-1.04-1.53-.55.59-1.14,1.05-1.77,1.4-.63.35-1.37.52-2.21.52-.6,0-1.21-.13-1.83-.4-.61-.27-1.12-.65-1.53-1.15-.41-.5-.61-1.08-.61-1.73s.17-1.24.5-1.75c.34-.51.76-.95,1.28-1.32s1.04-.68,1.58-.92c.69-.29,1.4-.52,2.12-.69.73-.16,1.45-.33,2.17-.5v-.1c0-.31,0-.73-.01-1.26,0-.53-.06-1.05-.17-1.58s-.28-.97-.52-1.35c-.24-.37-.59-.56-1.06-.56-.54,0-1.01.16-1.44.47-.42.31-.72.72-.89,1.24-.03.16-.06.31-.08.45-.02.15-.04.3-.08.45-.03.28-.19.46-.48.56-.29.1-.55.14-.79.14-.29,0-.58-.06-.85-.19-.28-.13-.41-.38-.41-.74,0-.14.02-.26.06-.38s.09-.23.14-.35c.28-.66.69-1.14,1.24-1.45.55-.31,1.16-.52,1.83-.62.66-.1,1.3-.16,1.9-.16,1.42,0,2.58.38,3.5,1.14.91.76,1.37,1.88,1.37,3.37v3.91c-.02.48-.02.98-.01,1.49,0,.51.03,1.01.06,1.51.03.29.1.57.21.84s.34.4.7.4c.24,0,.44-.05.61-.16s.31-.16.45-.16c.07,0,.11.03.13.1.02.07.03.12.03.16Zm-5.33-1.53c-.05-.81-.09-1.63-.1-2.45-.02-.82-.02-1.64,0-2.47-.71.12-1.39.34-2.06.66-.67.32-1.21.75-1.64,1.28s-.65,1.22-.65,2.04c0,.35.05.72.14,1.11.09.4.27.73.52,1s.59.4,1.02.4c.31,0,.64-.09.98-.27.34-.18.68-.39,1-.63.32-.24.58-.47.79-.67Z"/><path class="cls-2" d="m338.45,97.9c0,.24-.12.45-.38.63-.25.18-.56.33-.93.44s-.75.19-1.13.25-.7.08-.96.08c-1.29,0-2.19-.26-2.69-.79-.5-.53-.75-1.4-.75-2.63,0-1.48,0-2.97.03-4.45.02-1.48.03-2.97.03-4.45h-1.19c-.17,0-.32.06-.44.17-.12.11-.23.17-.34.17-.17,0-.26-.09-.26-.26,0-.07.03-.2.1-.39.07-.19.12-.31.16-.36.05-.1.1-.16.16-.18.05-.02.13-.03.23-.03h1.6v-2.77c.43-.24.91-.6,1.42-1.06.52-.47.91-.9,1.19-1.29.05-.09.12-.18.21-.27.09-.09.19-.14.31-.14.28,0,.41.12.39.36l-.08,5.18h2.67c.14,0,.26.03.38.09.11.06.17.17.17.32,0,.33-.18.49-.54.49h-2.67l-.05,9.99c0,.28.06.54.17.79s.33.38.66.38c.29,0,.59-.03.89-.08.3-.05.58-.14.84-.26.09-.03.17-.07.25-.12.08-.04.16-.07.25-.07.21,0,.31.09.31.26Z"/><path class="cls-2" d="m70.65,68.18H18.51l-.13-.7c-.81-4.42.37-8.94,3.25-12.4,2.88-3.46,7.11-5.44,11.61-5.44h22.7c4.5,0,8.73,1.98,11.61,5.44,2.88,3.46,4.06,7.97,3.25,12.4l-.13.7Zm-50.7-1.72h49.25c.48-3.69-.59-7.4-2.99-10.28-2.55-3.06-6.3-4.82-10.28-4.82h-22.7c-3.99,0-7.73,1.76-10.28,4.82-2.4,2.88-3.47,6.59-2.99,10.28Z"/><path class="cls-2" d="m44.58,84.57c-5.26,0-10.52-1.25-15.21-3.63-1.34-.67-2.66-1.45-3.93-2.33-6.05-4.17-10.64-10.31-12.91-17.3l-6.2-19-3.83-.38c-1.43-.13-2.51-1.33-2.51-2.77,0-1.54,1.25-2.78,2.78-2.78h5.72c4.47,0,8.8,1.31,12.52,3.79,3.94,2.61,6.92,6.32,8.61,10.74.17.44-.05.94-.49,1.11-.44.17-.94-.05-1.11-.5-1.56-4.08-4.32-7.5-7.96-9.92-3.44-2.29-7.44-3.5-11.57-3.5H2.78c-.59,0-1.07.48-1.07,1.07,0,.54.42,1.01.95,1.06l4.95.5,6.54,20.07c2.16,6.63,6.51,12.46,12.26,16.42,1.21.83,2.46,1.58,3.73,2.21,4.45,2.25,9.44,3.44,14.43,3.44s9.97-1.19,14.42-3.43c1.28-.65,2.54-1.4,3.73-2.22.18-.12.33-.23.48-.34l.16-.11c5.49-3.98,9.51-9.5,11.62-15.97l6.54-20.07,4.94-.5c.55-.05.97-.51.97-1.06,0-.59-.48-1.07-1.07-1.07h-5.71c-8.61,0-16.45,5.39-19.53,13.42-.17.44-.67.67-1.11.5-.44-.17-.67-.67-.5-1.11,3.33-8.69,11.82-14.52,21.13-14.52h5.71c1.54,0,2.79,1.25,2.79,2.78,0,1.45-1.08,2.64-2.52,2.77l-3.82.38-6.2,19c-2.22,6.81-6.46,12.63-12.25,16.83l-.16.11c-.17.12-.34.25-.53.37-1.24.86-2.57,1.65-3.92,2.33-4.69,2.37-9.95,3.62-15.2,3.62Z"/><path class="cls-2" d="m68.14,42.13c-.46,0-.87-.33-.95-.81l-.41-2.5.66-4.04c.2-1.23.3-2.5.3-3.76,0-12.75-10.39-23.12-23.16-23.12-6.85,0-13.3,3-17.71,8.24-4.41,5.24-6.27,12.11-5.11,18.86l.35,2.04-.61,3.99c-.08.53-.57.89-1.1.8-.52-.08-.89-.57-.81-1.1l.56-3.68-.3-1.73c-1.26-7.31.76-14.75,5.53-20.42,4.78-5.67,11.77-8.93,19.18-8.93,13.83,0,25.09,11.23,25.09,25.04,0,1.37-.11,2.74-.33,4.07l-.61,3.73.36,2.19c.09.52-.27,1.02-.79,1.11-.05,0-.11.01-.16.01Z"/><path class="cls-2" d="m44.58,33.81c-1.66,0-3.01-1.35-3.01-3.01s1.35-3.01,3.01-3.01,3.01,1.35,3.01,3.01-1.35,3.01-3.01,3.01Zm0-4.29c-.71,0-1.29.58-1.29,1.29s.58,1.29,1.29,1.29,1.29-.58,1.29-1.29-.58-1.29-1.29-1.29Z"/><path class="cls-2" d="m27.88,95.88c-1.23,0-2.22-.96-2.27-2.19l-.6-17.47,1.41.97c1.21.83,2.46,1.58,3.73,2.21l.49.25-.48,14.03c-.04,1.23-1.04,2.2-2.27,2.2Zm-1.04-16.36l.48,14.1c.01.3.26.54.56.54s.55-.24.56-.53l.45-12.94c-.69-.36-1.37-.75-2.04-1.16Z"/><path class="cls-2" d="m61.27,95.88c-1.24,0-2.24-.97-2.27-2.2l-.48-14.02.49-.25c1.28-.65,2.54-1.4,3.73-2.22l1.41-.97-.6,17.46c-.04,1.23-1.04,2.2-2.27,2.2Zm-1-15.19l.44,12.93c0,.3.25.54.56.54s.55-.24.56-.53l.48-14.1c-.67.41-1.35.8-2.04,1.17Z"/></g></g></svg>