<?xml version="1.0" encoding="UTF-8"?><svg id="Layer_2" xmlns="http://www.w3.org/2000/svg" viewBox="0 0 367.31 107.86"><defs><style>.cls-1{stroke-width:1.72px;}.cls-1,.cls-2{fill:none;stroke:#000;stroke-linecap:round;stroke-miterlimit:10;}.cls-3{font-size:74.43px;letter-spacing:.2em;}.cls-3,.cls-4{font-family:KaiseiHarunoUmi-Bold, 'Kaisei HarunoUmi';font-weight:700;}.cls-2{stroke-width:1.92px;}.cls-4{font-size:25.89px;letter-spacing:.2em;}</style></defs><g id="OBJECTS"><text class="cls-3" transform="translate(99.35 65.5)"><tspan x="0" y="0">珍奇椅</tspan></text><text class="cls-4" transform="translate(108.15 102.34)"><tspan x="0" y="0">Precious Seat</tspan></text><path class="cls-1" d="m55.93,53.7h-22.7c-8.9,0-15.62,8.07-14.01,16.82h50.72c1.61-8.75-5.11-16.82-14.01-16.82Z"/><path class="cls-1" d="m60.33,54.39c3.18-8.32,11.22-13.97,20.33-13.97h5.71c1.07,0,1.93.87,1.93,1.92,0,.99-.75,1.82-1.74,1.92l-4.38.44-6.37,19.53c-2.2,6.76-6.45,12.43-11.94,16.4-.22.15-.43.31-.65.46-1.22.84-2.5,1.61-3.83,2.28-4.49,2.26-9.55,3.52-14.81,3.52s-10.33-1.26-14.82-3.53c-1.33-.66-2.61-1.43-3.83-2.27-5.79-3.99-10.3-9.83-12.58-16.86l-6.37-19.53-4.38-.44c-.98-.09-1.73-.93-1.73-1.92,0-1.06.86-1.92,1.92-1.92h5.72c4.41,0,8.57,1.33,12.04,3.64,3.71,2.46,6.64,6.04,8.29,10.33"/><path class="cls-2" d="m20.55,44.07l.59-3.83-.32-1.89c-2.54-14.74,8.81-28.22,23.77-28.22,13.53,0,24.13,11.03,24.13,24.08,0,1.29-.1,2.6-.32,3.92l-.63,3.89.39,2.35"/><circle class="cls-1" cx="44.58" cy="34" r="2.15"/><path class="cls-1" d="m29.76,83.37l-.46,13.48c-.02.77-.65,1.37-1.41,1.37s-1.38-.6-1.41-1.37l-.54-15.75c1.22.84,2.5,1.61,3.83,2.27Z"/><path class="cls-1" d="m63.23,81.1l-.54,15.75c-.02.77-.65,1.37-1.41,1.37s-1.39-.6-1.41-1.37l-.46-13.47c1.33-.67,2.61-1.44,3.83-2.28Z"/></g></svg>