<?xml version="1.0" encoding="UTF-8"?><svg id="Layer_2" xmlns="http://www.w3.org/2000/svg" viewBox="0 0 173.4 242.25"><defs><style>.cls-1{font-size:15.35px;letter-spacing:.2em;}.cls-1,.cls-2{font-family:KaiseiHarunoUmi-Bold, 'Kaisei HarunoUmi';font-weight:700;}.cls-3{stroke-width:3.34px;}.cls-3,.cls-4{fill:none;stroke:#000;stroke-linecap:round;stroke-miterlimit:10;}.cls-2{font-size:44.12px;letter-spacing:.2em;}.cls-4{stroke-width:3.74px;}</style></defs><g id="OBJECTS"><text class="cls-2" transform="translate(13.23 217.14)"><tspan x="0" y="0">珍奇椅</tspan></text><text class="cls-1" transform="translate(18.44 238.98)"><tspan x="0" y="0">Precious Seat</tspan></text><path class="cls-3" d="m108.76,86.61h-44.14c-17.3,0-30.37,15.69-27.24,32.71h98.63c3.13-17.02-9.94-32.71-27.24-32.71Z"/><path class="cls-3" d="m117.32,87.95c6.19-16.18,21.81-27.16,39.54-27.16h11.11c2.07,0,3.76,1.68,3.76,3.74,0,1.92-1.46,3.55-3.38,3.73l-8.52.86-12.39,37.99c-4.28,13.14-12.55,24.17-23.21,31.9-.42.3-.83.6-1.26.89-2.38,1.64-4.87,3.13-7.46,4.43-8.73,4.4-18.57,6.86-28.8,6.86s-20.08-2.45-28.82-6.87c-2.59-1.29-5.08-2.78-7.46-4.42-11.26-7.76-20.02-19.12-24.47-32.79l-12.39-37.99-8.52-.86c-1.91-.18-3.37-1.8-3.37-3.73,0-2.06,1.67-3.74,3.74-3.74h11.12c8.58,0,16.67,2.59,23.42,7.08,7.22,4.78,12.91,11.74,16.12,20.08"/><path class="cls-4" d="m39.96,67.88l1.14-7.46-.63-3.67C35.52,28.09,57.61,1.87,86.7,1.87c26.31,0,46.92,21.45,46.92,46.83,0,2.51-.2,5.05-.62,7.62l-1.23,7.56.75,4.57"/><circle class="cls-3" cx="86.69" cy="48.3" r="4.18"/><path class="cls-3" d="m57.88,144.31l-.9,26.22c-.05,1.49-1.26,2.66-2.75,2.66s-2.69-1.17-2.75-2.66l-1.05-30.64c2.38,1.64,4.87,3.13,7.46,4.42Z"/><path class="cls-3" d="m122.96,139.89l-1.05,30.64c-.05,1.49-1.26,2.66-2.75,2.66s-2.71-1.17-2.75-2.66l-.9-26.2c2.59-1.31,5.08-2.8,7.46-4.43Z"/></g></svg>